<svg width="129" height="65" viewBox="0 0 129 65" fill="none" xmlns="http://www.w3.org/2000/svg">
<path d="M1.24316 21.3529H4.20024C7.0205 21.3529 8.73965 20.115 8.73965 16.2634V11.5183C8.73965 8.08004 7.5706 6.56659 4.88809 6.56659H1.24316V21.3529Z" fill="white"/>
<path d="M29.4393 0H8.66699C13.9679 1.02172 16.3041 4.58054 16.3041 10.7616V14.5443C16.3041 19.496 14.7218 22.6597 11.3524 24.2411V24.3788C15.1351 25.9602 16.373 29.5372 16.373 34.5578V41.9854C16.373 44.1877 16.4342 45.8408 17.0743 47.5198H29.4402V0H29.4393Z" fill="white"/>
<path d="M8.80755 41.9165V34.3512C8.80755 29.8807 7.2941 28.2304 3.85582 28.2304H1.24219V47.5198H9.39207C9.03715 46.4397 8.80755 45.4993 8.80755 41.9165Z" fill="white"/>
<path d="M49.4512 36.277V33.3199H56.6042V36.7582C56.6042 40.1964 58.1167 41.4344 60.5246 41.4344C62.9326 41.4344 64.4451 40.1964 64.4451 36.7582C64.4451 33.3199 62.9316 30.6374 57.9799 26.3046C51.6525 20.7339 49.6578 16.7446 49.6578 11.2428C49.6578 5.74098 51.7434 1.63017 55.8255 0H37.0049V47.5198H55.7049C51.575 45.8896 49.4521 41.9931 49.4521 36.277H49.4512Z" fill="white"/>
<path d="M105.09 0V6.56659H92.0225V19.9772H102.407V26.8547H92.0225V40.9532H105.09V47.5198H128.987V0H105.09Z" fill="white"/>
<path d="M65.7571 47.5198H84.4572V0H65.7734C69.8555 1.63017 71.9401 5.52669 71.9401 11.2428V12.7553H64.788V10.7606C64.788 7.3214 63.4123 6.01555 61.0053 6.01555C58.5984 6.01555 57.2227 7.32236 57.2227 10.7606C57.2227 14.1989 58.7352 16.8814 63.6878 21.2142C70.0153 26.7849 72.009 30.7742 72.009 36.276C72.009 41.7778 69.8861 45.8886 65.7562 47.5188L65.7571 47.5198Z" fill="white"/>
<path d="M9.29501 64.7006H7.62753L6.65269 61.7751H2.43759L1.44648 64.7006H0L3.72719 53.9266H5.56687L9.29405 64.7006H9.29501ZM6.2595 60.5802L4.52984 55.4372L2.81548 60.5802H6.26045H6.2595Z" fill="white"/>
<path d="M28.169 55.2477H24.8504V64.7006H23.2776V55.2477H19.959V53.9581H28.169V55.2477Z" fill="white"/>
<path d="M48.9324 64.7006H47.3596V59.7776H42.3582V64.7006H40.8008V53.9581H42.3582V58.488H47.3596V53.9581H48.9324V64.7006Z" fill="white"/>
<path d="M68.5609 64.7006H62.3799V53.9581H63.9373V63.3947H68.5619V64.7006H68.5609Z" fill="white"/>
<path d="M87.9229 64.7006H81.3008V53.9581H87.7181V55.2162H82.842V58.5195H86.7586V59.7776H82.842V63.4426H87.9219V64.7006H87.9229Z" fill="white"/>
<path d="M108.15 55.2477H104.831V64.7006H103.258V55.2477H99.9395V53.9581H108.15V55.2477Z" fill="white"/>
<path d="M127.401 64.7006H120.78V53.9581H127.198V55.2162H122.322V58.5195H126.239V59.7776H122.322V63.4426H127.402V64.7006H127.401Z" fill="white"/>
</svg>
