<svg width="14" height="14" viewBox="0 0 14 14" fill="none" xmlns="http://www.w3.org/2000/svg">
<path d="M9.87672 7.48835C10.7454 6.71093 11.2603 5.61415 11.304 4.44941C11.3468 3.28468 10.9148 2.15252 10.1058 1.3137C9.29763 0.474837 8.18223 0 7.01654 0C5.85085 0 4.73548 0.474837 3.92731 1.3137C3.11824 2.15257 2.68623 3.28472 2.72906 4.44941C2.77282 5.61415 3.2877 6.71093 4.15636 7.48835C2.95812 7.90825 1.91999 8.68941 1.1844 9.72379C0.449811 10.7591 0.0541052 11.9965 0.0522461 13.2654C0.0522461 13.6713 0.380904 14 0.785906 14C1.19184 14 1.52049 13.6713 1.52049 13.2654C1.52143 12.0299 2.01302 10.8447 2.88728 9.97048C3.76154 9.09622 4.94582 8.60463 6.1822 8.6037H7.86926C9.10569 8.60463 10.2909 9.09622 11.1651 9.97048C12.0385 10.8447 12.5301 12.03 12.5319 13.2654C12.5319 13.6713 12.8606 14 13.2656 14C13.6715 14 14.0002 13.6713 14.0002 13.2654C13.9964 11.9936 13.598 10.7544 12.8596 9.71998C12.1204 8.68464 11.0785 7.90444 9.87646 7.48826L9.87672 7.48835ZM7.01654 1.50534C8.15241 1.50534 9.17564 2.18966 9.61048 3.23894C10.0453 4.28822 9.80507 5.49581 9.00158 6.29837C8.19901 7.10187 6.99144 7.34208 5.94214 6.90728C4.89286 6.47249 4.20854 5.44926 4.20854 4.31334C4.20854 2.76315 5.46544 1.50536 7.01652 1.50536L7.01654 1.50534Z" fill="white"/>
</svg>
